<svg width="90" height="41" viewBox="0 0 90 41" fill="none" xmlns="http://www.w3.org/2000/svg">
<path d="M4.31339 22.1814L6.46049 19.4771C6.61386 19.2782 6.79598 19.1321 7.00686 19.0388C7.21773 18.9456 7.43819 18.8989 7.66824 18.8989C7.89829 18.8989 8.11875 18.9456 8.32963 19.0388C8.5405 19.1321 8.72263 19.2782 8.87599 19.4771L11.0231 22.1814L14.2821 23.2445C14.6144 23.344 14.8764 23.5274 15.0681 23.7947C15.2598 24.062 15.3557 24.3573 15.3557 24.6806C15.3557 24.8298 15.3333 24.979 15.2886 25.1282C15.2438 25.2774 15.1703 25.4204 15.0681 25.5572L12.9593 28.4667L13.036 31.5254C13.0488 31.9606 12.9018 32.3274 12.5951 32.6258C12.2884 32.9242 11.9305 33.0734 11.5215 33.0734C11.496 33.0734 11.3554 33.0547 11.0998 33.0174L7.66824 32.0849L4.2367 33.0174C4.1728 33.0423 4.10251 33.0578 4.02583 33.0641C3.94914 33.0703 3.87885 33.0734 3.81495 33.0734C3.40598 33.0734 3.04813 32.9242 2.7414 32.6258C2.43467 32.3274 2.28769 31.9606 2.30047 31.5254L2.37715 28.448L0.287559 25.5572C0.185316 25.4204 0.111829 25.2774 0.0670971 25.1282C0.0223657 24.979 0 24.8298 0 24.6806C0 24.3698 0.0926579 24.0807 0.277974 23.8134C0.46329 23.546 0.722093 23.3564 1.05438 23.2445L4.31339 22.1814Z" fill="#443226"/>
<path d="M78.7289 22.1814L80.876 19.4771C81.0294 19.2782 81.2115 19.1321 81.4224 19.0388C81.6333 18.9456 81.8537 18.8989 82.0838 18.8989C82.3138 18.8989 82.5343 18.9456 82.7452 19.0388C82.956 19.1321 83.1382 19.2782 83.2915 19.4771L85.4386 22.1814L88.6976 23.2445C89.0299 23.344 89.2919 23.5274 89.4836 23.7947C89.6753 24.062 89.7712 24.3573 89.7712 24.6806C89.7712 24.8298 89.7488 24.979 89.7041 25.1282C89.6594 25.2774 89.5859 25.4204 89.4836 25.5572L87.3749 28.4667L87.4515 31.5254C87.4643 31.9606 87.3173 32.3274 87.0106 32.6258C86.7039 32.9242 86.346 33.0734 85.9371 33.0734C85.9115 33.0734 85.7709 33.0547 85.5153 33.0174L82.0838 32.0849L78.6522 33.0174C78.5883 33.0423 78.518 33.0578 78.4414 33.0641C78.3647 33.0703 78.2944 33.0734 78.2305 33.0734C77.8215 33.0734 77.4637 32.9242 77.1569 32.6258C76.8502 32.3274 76.7032 31.9606 76.716 31.5254L76.7927 28.448L74.7031 25.5572C74.6008 25.4204 74.5274 25.2774 74.4826 25.1282C74.4379 24.979 74.4155 24.8298 74.4155 24.6806C74.4155 24.3698 74.5082 24.0807 74.6935 23.8134C74.8788 23.546 75.1376 23.3564 75.4699 23.2445L78.7289 22.1814Z" fill="#443226"/>
<path d="M44.8862 32.2767L58.0259 40.1609L54.539 25.3014L66.1479 15.3034L50.8607 14.0141L44.8862 0L38.9117 14.0141L23.6245 15.3034L35.2334 25.3014L31.7465 40.1609L44.8862 32.2767Z" fill="#443226"/>
</svg>
